<svg width="48" height="48" viewBox="0 0 22 22" fill="none" xmlns="http://www.w3.org/2000/svg">
<path d="M11 18.3333C10.8014 18.3333 10.6371 18.2684 10.5073 18.1385C10.3774 18.0087 10.3125 17.8444 10.3125 17.6458V6.27915L5.1104 11.4812C4.9729 11.6187 4.81248 11.6875 4.62915 11.6875C4.44582 11.6875 4.2854 11.6187 4.1479 11.4812C4.0104 11.3437 3.94165 11.1833 3.94165 11C3.94165 10.8167 4.0104 10.6562 4.1479 10.5187L10.5187 4.1479C10.5951 4.07151 10.6753 4.01804 10.7594 3.98748C10.8434 3.95693 10.9236 3.94165 11 3.94165C11.0917 3.94165 11.1757 3.95693 11.2521 3.98748C11.3285 4.01804 11.4048 4.07151 11.4812 4.1479L17.8521 10.5187C17.9896 10.6562 18.0583 10.8167 18.0583 11C18.0583 11.1833 17.9896 11.3437 17.8521 11.4812C17.7146 11.6187 17.5542 11.6875 17.3708 11.6875C17.1875 11.6875 17.0271 11.6187 16.8896 11.4812L11.6875 6.27915V17.6458C11.6875 17.8444 11.6226 18.0087 11.4927 18.1385C11.3628 18.2684 11.1986 18.3333 11 18.3333Z" fill="#525252"/>
</svg>
