<svg width="48" height="48" viewBox="0 0 48 48" fill="none" xmlns="http://www.w3.org/2000/svg">
<path d="M24 40.0001C23.5666 40.0001 23.2083 39.8584 22.925 39.5751C22.6416 39.2918 22.5 38.9334 22.5 38.5001V13.7001L11.15 25.0501C10.85 25.3501 10.5 25.5001 10.1 25.5001C9.69998 25.5001 9.34998 25.3501 9.04998 25.0501C8.74998 24.7501 8.59998 24.4001 8.59998 24.0001C8.59998 23.6001 8.74998 23.2501 9.04998 22.9501L22.95 9.0501C23.1166 8.88343 23.2916 8.76676 23.475 8.7001C23.6583 8.63343 23.8333 8.6001 24 8.6001C24.2 8.6001 24.3833 8.63343 24.55 8.7001C24.7166 8.76676 24.8833 8.88343 25.05 9.0501L38.95 22.9501C39.25 23.2501 39.4 23.6001 39.4 24.0001C39.4 24.4001 39.25 24.7501 38.95 25.0501C38.65 25.3501 38.3 25.5001 37.9 25.5001C37.5 25.5001 37.15 25.3501 36.85 25.0501L25.5 13.7001V38.5001C25.5 38.9334 25.3583 39.2918 25.075 39.5751C24.7916 39.8584 24.4333 40.0001 24 40.0001Z" fill="#E0E0E0"/>
</svg>
