<svg width="504" height="49" viewBox="0 0 504 49" fill="none" xmlns="http://www.w3.org/2000/svg">
<path d="M9.312 39.744H17.12C19.1253 39.744 20.9813 39.4027 22.688 38.72C24.4373 37.9947 25.952 36.992 27.232 35.712C28.5547 34.432 29.5573 32.9387 30.24 31.232C30.9653 29.5253 31.328 27.6693 31.328 25.664C31.328 23.6587 30.9653 21.8027 30.24 20.096C29.5147 18.3467 28.512 16.832 27.232 15.552C25.952 14.272 24.4373 13.2693 22.688 12.544C20.9813 11.8187 19.1253 11.456 17.12 11.456H9.312V39.744ZM0.0319977 48V3.2H17.248C20.6187 3.2 23.7333 3.776 26.592 4.928C29.4507 6.03733 31.9467 7.616 34.08 9.664C36.2133 11.712 37.8773 14.1013 39.072 16.832C40.3093 19.5627 40.928 22.5067 40.928 25.664C40.928 28.864 40.3307 31.808 39.136 34.496C37.9413 37.184 36.256 39.552 34.08 41.6C31.9467 43.6053 29.4507 45.184 26.592 46.336C23.7333 47.4453 20.6187 48 17.248 48H0.0319977Z" fill="#141414"/>
<path d="M63.026 48.64C59.698 48.64 56.6687 47.872 53.938 46.336C51.25 44.8 49.1167 42.7307 47.538 40.128C45.9593 37.5253 45.17 34.6027 45.17 31.36C45.17 28.1173 45.9167 25.1947 47.41 22.592C48.946 19.9893 51.0153 17.92 53.618 16.384C56.2207 14.848 59.122 14.08 62.322 14.08C65.522 14.08 68.3593 14.8693 70.834 16.448C73.3087 18.0267 75.25 20.16 76.658 22.848C78.1087 25.536 78.834 28.5867 78.834 32V34.304H54.13C54.514 35.6267 55.1327 36.8213 55.986 37.888C56.882 38.9547 57.97 39.7867 59.25 40.384C60.5727 40.9813 61.9807 41.28 63.474 41.28C64.9673 41.28 66.3327 41.0453 67.57 40.576C68.85 40.1067 69.938 39.4453 70.834 38.592L76.594 43.84C74.546 45.504 72.434 46.72 70.258 47.488C68.1247 48.256 65.714 48.64 63.026 48.64ZM54.002 28.032H70.194C69.8953 26.7093 69.3407 25.5573 68.53 24.576C67.762 23.552 66.8233 22.7627 65.714 22.208C64.6473 21.6107 63.4527 21.312 62.13 21.312C60.7647 21.312 59.5273 21.5893 58.418 22.144C57.3087 22.6987 56.37 23.488 55.602 24.512C54.8767 25.4933 54.3433 26.6667 54.002 28.032Z" fill="#141414"/>
<path d="M84.206 48V3.2L92.974 1.728V17.344C95.6193 15.2533 98.734 14.208 102.318 14.208C105.475 14.208 108.334 14.976 110.894 16.512C113.454 18.048 115.481 20.1173 116.974 22.72C118.51 25.28 119.278 28.16 119.278 31.36C119.278 34.56 118.51 37.4613 116.974 40.064C115.438 42.624 113.369 44.672 110.766 46.208C108.163 47.7013 105.262 48.448 102.062 48.448C100.398 48.448 98.7767 48.2133 97.198 47.744C95.6193 47.2747 94.1687 46.592 92.846 45.696V48H84.206ZM100.91 41.024C102.745 41.024 104.387 40.5973 105.838 39.744C107.331 38.8907 108.505 37.7387 109.358 36.288C110.211 34.8373 110.638 33.1947 110.638 31.36C110.638 29.5253 110.211 27.8827 109.358 26.432C108.505 24.9387 107.331 23.7867 105.838 22.976C104.387 22.1227 102.745 21.696 100.91 21.696C99.2887 21.696 97.7953 21.9733 96.43 22.528C95.1073 23.04 93.9553 23.8293 92.974 24.896V37.888C93.9127 38.8693 95.0647 39.6373 96.43 40.192C97.838 40.7467 99.3313 41.024 100.91 41.024Z" fill="#141414"/>
<path d="M140.837 48.64C137.509 48.64 134.501 47.872 131.813 46.336C129.125 44.8 126.992 42.7307 125.413 40.128C123.834 37.5253 123.045 34.6027 123.045 31.36C123.045 28.1173 123.813 25.1947 125.349 22.592C126.928 19.9467 129.061 17.856 131.749 16.32C134.48 14.784 137.509 14.016 140.837 14.016C144.165 14.016 147.173 14.784 149.861 16.32C152.592 17.856 154.725 19.9467 156.261 22.592C157.84 25.1947 158.629 28.1173 158.629 31.36C158.629 34.6027 157.84 37.5253 156.261 40.128C154.725 42.7307 152.613 44.8 149.925 46.336C147.237 47.872 144.208 48.64 140.837 48.64ZM140.837 41.024C142.586 41.024 144.144 40.5973 145.509 39.744C146.917 38.8907 148.026 37.7387 148.837 36.288C149.69 34.7947 150.117 33.152 150.117 31.36C150.117 29.5253 149.69 27.8827 148.837 26.432C148.026 24.9813 146.917 23.8293 145.509 22.976C144.144 22.08 142.586 21.632 140.837 21.632C139.13 21.632 137.573 22.08 136.165 22.976C134.757 23.8293 133.648 24.9813 132.837 26.432C132.026 27.8827 131.621 29.5253 131.621 31.36C131.621 33.152 132.026 34.7947 132.837 36.288C133.648 37.7387 134.757 38.8907 136.165 39.744C137.573 40.5973 139.13 41.024 140.837 41.024Z" fill="#141414"/>
<path d="M164.018 48V14.656H172.786V18.368C173.853 16.9173 175.133 15.808 176.626 15.04C178.12 14.272 179.805 13.888 181.682 13.888C183.304 13.9307 184.52 14.1867 185.331 14.656V22.336C184.691 22.0373 183.986 21.824 183.218 21.696C182.45 21.5253 181.661 21.44 180.85 21.44C179.144 21.44 177.586 21.8667 176.178 22.72C174.77 23.5733 173.64 24.7893 172.786 26.368V48H164.018Z" fill="#141414"/>
<path d="M199.83 48.576C197.441 48.576 195.329 48.1493 193.494 47.296C191.659 46.4 190.23 45.184 189.206 43.648C188.182 42.112 187.67 40.3413 187.67 38.336C187.67 35.136 188.865 32.6613 191.254 30.912C193.686 29.12 197.014 28.224 201.238 28.224C204.139 28.224 206.87 28.672 209.43 29.568V27.136C209.43 25.216 208.833 23.7653 207.638 22.784C206.443 21.8027 204.694 21.312 202.39 21.312C200.982 21.312 199.467 21.5467 197.846 22.016C196.225 22.4427 194.347 23.1253 192.214 24.064L189.014 17.6C191.659 16.4053 194.177 15.5093 196.566 14.912C198.998 14.3147 201.43 14.016 203.862 14.016C208.342 14.016 211.819 15.104 214.294 17.28C216.811 19.4133 218.07 22.4427 218.07 26.368V48H209.43V45.632C208.065 46.656 206.593 47.4027 205.014 47.872C203.435 48.3413 201.707 48.576 199.83 48.576ZM195.99 38.144C195.99 39.424 196.545 40.448 197.654 41.216C198.763 41.9413 200.235 42.304 202.07 42.304C203.521 42.304 204.865 42.1333 206.102 41.792C207.339 41.408 208.449 40.8533 209.43 40.128V35.264C208.363 34.8373 207.254 34.5173 206.102 34.304C204.95 34.0907 203.713 33.984 202.39 33.984C200.385 33.984 198.806 34.368 197.654 35.136C196.545 35.8613 195.99 36.864 195.99 38.144Z" fill="#141414"/>
<path d="M224.706 48V3.2L233.474 1.28V17.408C235.991 15.1467 239.106 14.016 242.818 14.016C245.421 14.016 247.703 14.592 249.666 15.744C251.671 16.8533 253.229 18.4107 254.338 20.416C255.447 22.3787 256.002 24.6827 256.002 27.328V48H247.234V28.608C247.234 26.432 246.615 24.7253 245.378 23.488C244.141 22.208 242.455 21.568 240.322 21.568C238.829 21.568 237.506 21.8667 236.354 22.464C235.202 23.0187 234.242 23.8293 233.474 24.896V48H224.706Z" fill="#141414"/>
<path d="M298.174 48.64C294.846 48.64 291.732 48.064 288.83 46.912C285.929 45.7173 283.39 44.0747 281.214 41.984C279.081 39.8933 277.396 37.4613 276.158 34.688C274.964 31.872 274.367 28.8427 274.367 25.6C274.367 22.3147 274.964 19.2853 276.158 16.512C277.396 13.696 279.102 11.2427 281.278 9.152C283.454 7.06133 285.972 5.44 288.83 4.288C291.732 3.09333 294.846 2.496 298.174 2.496C300.649 2.496 303.039 2.83733 305.343 3.52C307.647 4.20266 309.78 5.16267 311.743 6.4C313.748 7.63733 315.455 9.13066 316.863 10.88L310.59 17.088C308.969 15.0827 307.092 13.568 304.959 12.544C302.868 11.52 300.606 11.008 298.174 11.008C296.169 11.008 294.292 11.392 292.542 12.16C290.793 12.8853 289.278 13.9093 287.998 15.232C286.718 16.512 285.716 18.048 284.99 19.84C284.265 21.5893 283.903 23.5093 283.903 25.6C283.903 27.648 284.265 29.568 284.99 31.36C285.716 33.1093 286.74 34.6453 288.062 35.968C289.385 37.248 290.921 38.2507 292.67 38.976C294.462 39.7013 296.404 40.064 298.494 40.064C300.841 40.064 303.039 39.5733 305.087 38.592C307.135 37.6107 308.948 36.2027 310.527 34.368L316.606 40.384C315.198 42.0907 313.513 43.5627 311.55 44.8C309.588 46.0373 307.454 46.9973 305.15 47.68C302.889 48.32 300.564 48.64 298.174 48.64Z" fill="#141414"/>
<path d="M321.456 48V14.656H330.224V18.368C331.291 16.9173 332.571 15.808 334.064 15.04C335.557 14.272 337.243 13.888 339.12 13.888C340.741 13.9307 341.957 14.1867 342.768 14.656V22.336C342.128 22.0373 341.424 21.824 340.656 21.696C339.888 21.5253 339.099 21.44 338.288 21.44C336.581 21.44 335.024 21.8667 333.616 22.72C332.208 23.5733 331.077 24.7893 330.224 26.368V48H321.456Z" fill="#141414"/>
<path d="M347.581 48V14.656H356.349V48H347.581ZM351.933 10.688C350.568 10.688 349.394 10.1973 348.413 9.216C347.432 8.23467 346.941 7.06133 346.941 5.696C346.941 4.288 347.432 3.11467 348.413 2.176C349.394 1.19467 350.568 0.703999 351.933 0.703999C353.341 0.703999 354.514 1.19467 355.453 2.176C356.434 3.11467 356.925 4.288 356.925 5.696C356.925 7.06133 356.434 8.23467 355.453 9.216C354.514 10.1973 353.341 10.688 351.933 10.688Z" fill="#141414"/>
<path d="M375.686 48.64C372.614 48.64 369.777 48.256 367.174 47.488C364.571 46.6773 362.31 45.5253 360.39 44.032L364.742 38.208C366.662 39.488 368.497 40.448 370.246 41.088C372.038 41.728 373.809 42.048 375.558 42.048C377.521 42.048 379.078 41.728 380.23 41.088C381.425 40.4053 382.022 39.5307 382.022 38.464C382.022 37.6107 381.681 36.928 380.998 36.416C380.358 35.904 379.313 35.5413 377.862 35.328L371.462 34.368C368.134 33.856 365.617 32.7893 363.91 31.168C362.203 29.504 361.35 27.328 361.35 24.64C361.35 22.464 361.905 20.608 363.014 19.072C364.166 17.4933 365.766 16.2773 367.814 15.424C369.905 14.528 372.379 14.08 375.238 14.08C377.67 14.08 380.038 14.4213 382.342 15.104C384.689 15.7867 386.886 16.832 388.934 18.24L384.71 23.936C382.875 22.784 381.126 21.952 379.462 21.44C377.798 20.928 376.113 20.672 374.406 20.672C372.827 20.672 371.547 20.9707 370.566 21.568C369.627 22.1653 369.158 22.9547 369.158 23.936C369.158 24.832 369.499 25.536 370.182 26.048C370.865 26.56 372.038 26.9227 373.702 27.136L380.038 28.096C383.366 28.5653 385.905 29.632 387.654 31.296C389.403 32.9173 390.278 35.0293 390.278 37.632C390.278 39.7653 389.638 41.664 388.358 43.328C387.078 44.9493 385.35 46.2507 383.174 47.232C380.998 48.1707 378.502 48.64 375.686 48.64Z" fill="#141414"/>
<path d="M409.826 48.512C406.114 48.512 403.298 47.68 401.378 46.016C399.501 44.3093 398.562 41.8347 398.562 38.592V21.952H391.714V14.656H398.562V6.144L407.33 4.16V14.656H416.867V21.952H407.33V36.8C407.33 38.336 407.672 39.4453 408.355 40.128C409.037 40.768 410.232 41.088 411.938 41.088C412.792 41.088 413.56 41.0453 414.243 40.96C414.968 40.832 415.757 40.6187 416.61 40.32V47.552C415.714 47.8507 414.584 48.0853 413.218 48.256C411.896 48.4267 410.765 48.512 409.826 48.512Z" fill="#141414"/>
<path d="M421.144 48V14.656H429.911V48H421.144ZM425.495 10.688C424.13 10.688 422.957 10.1973 421.976 9.216C420.994 8.23467 420.503 7.06133 420.503 5.696C420.503 4.288 420.994 3.11467 421.976 2.176C422.957 1.19467 424.13 0.703999 425.495 0.703999C426.903 0.703999 428.077 1.19467 429.015 2.176C429.997 3.11467 430.488 4.288 430.488 5.696C430.488 7.06133 429.997 8.23467 429.015 9.216C428.077 10.1973 426.903 10.688 425.495 10.688Z" fill="#141414"/>
<path d="M436.769 48V14.656H445.536V17.408C448.054 15.1467 451.169 14.016 454.881 14.016C457.483 14.016 459.766 14.592 461.729 15.744C463.734 16.8533 465.291 18.4107 466.4 20.416C467.51 22.3787 468.064 24.6827 468.064 27.328V48H459.296V28.608C459.296 26.432 458.678 24.7253 457.441 23.488C456.203 22.208 454.518 21.568 452.385 21.568C450.891 21.568 449.568 21.8667 448.416 22.464C447.264 23.0187 446.304 23.8293 445.536 24.896V48H436.769Z" fill="#141414"/>
<path d="M485.33 48.576C482.941 48.576 480.829 48.1493 478.994 47.296C477.159 46.4 475.73 45.184 474.706 43.648C473.682 42.112 473.17 40.3413 473.17 38.336C473.17 35.136 474.365 32.6613 476.754 30.912C479.186 29.12 482.514 28.224 486.738 28.224C489.639 28.224 492.37 28.672 494.93 29.568V27.136C494.93 25.216 494.333 23.7653 493.138 22.784C491.943 21.8027 490.194 21.312 487.89 21.312C486.482 21.312 484.967 21.5467 483.346 22.016C481.725 22.4427 479.847 23.1253 477.714 24.064L474.514 17.6C477.159 16.4053 479.677 15.5093 482.066 14.912C484.498 14.3147 486.93 14.016 489.362 14.016C493.842 14.016 497.319 15.104 499.794 17.28C502.311 19.4133 503.57 22.4427 503.57 26.368V48H494.93V45.632C493.565 46.656 492.093 47.4027 490.514 47.872C488.935 48.3413 487.207 48.576 485.33 48.576ZM481.49 38.144C481.49 39.424 482.045 40.448 483.154 41.216C484.263 41.9413 485.735 42.304 487.57 42.304C489.021 42.304 490.365 42.1333 491.602 41.792C492.839 41.408 493.949 40.8533 494.93 40.128V35.264C493.863 34.8373 492.754 34.5173 491.602 34.304C490.45 34.0907 489.213 33.984 487.89 33.984C485.885 33.984 484.306 34.368 483.154 35.136C482.045 35.8613 481.49 36.864 481.49 38.144Z" fill="#141414"/>
</svg>
