<svg width="22" height="22" viewBox="0 0 22 22" fill="none" xmlns="http://www.w3.org/2000/svg">
<path d="M11 21.8334C9.48335 21.8334 8.06599 21.549 6.74794 20.9803C5.42988 20.4115 4.28335 19.6397 3.30835 18.6647C2.33335 17.6897 1.56599 16.5386 1.00627 15.2115C0.446548 13.8845 0.166687 12.4626 0.166687 10.9459C0.166687 9.42925 0.446548 8.0164 1.00627 6.70737C1.56599 5.39835 2.33335 4.25633 3.30835 3.28133C4.28335 2.30633 5.42988 1.54348 6.74794 0.99279C8.06599 0.442095 9.48335 0.166748 11 0.166748C12.5167 0.166748 13.934 0.442095 15.2521 0.99279C16.5702 1.54348 17.7167 2.30633 18.6917 3.28133C19.6667 4.25633 20.434 5.39835 20.9938 6.70737C21.5535 8.0164 21.8334 9.42925 21.8334 10.9459C21.8334 12.4626 21.5535 13.8845 20.9938 15.2115C20.434 16.5386 19.6667 17.6897 18.6917 18.6647C17.7167 19.6397 16.5702 20.4115 15.2521 20.9803C13.934 21.549 12.5167 21.8334 11 21.8334ZM11 20.2626C11.632 19.6126 12.1601 18.8678 12.5844 18.0282C13.0087 17.1886 13.3563 16.1911 13.6271 15.0355H8.40002C8.6528 16.1188 8.99134 17.0938 9.41564 17.9605C9.83995 18.8272 10.3681 19.5945 11 20.2626ZM8.69794 19.9376C8.24655 19.2515 7.85835 18.5112 7.53335 17.7167C7.20835 16.9223 6.93752 16.0286 6.72085 15.0355H2.65835C3.34446 16.3174 4.13891 17.324 5.04169 18.0553C5.94446 18.7865 7.16321 19.414 8.69794 19.9376ZM13.3292 19.9105C14.6292 19.4952 15.7983 18.8723 16.8365 18.0417C17.8747 17.2112 18.7097 16.2091 19.3417 15.0355H15.3063C15.0715 16.0105 14.7962 16.8952 14.4802 17.6897C14.1643 18.4841 13.7806 19.2244 13.3292 19.9105ZM2.11669 13.4105H6.42294C6.36877 12.923 6.33717 12.4851 6.32815 12.097C6.31912 11.7088 6.3146 11.3251 6.3146 10.9459C6.3146 10.4945 6.32363 10.0928 6.34169 9.74071C6.35974 9.38862 6.39585 8.99591 6.45002 8.56258H2.11669C1.9903 8.99591 1.90453 9.38411 1.8594 9.72716C1.81426 10.0702 1.79169 10.4765 1.79169 10.9459C1.79169 11.4154 1.81426 11.8351 1.8594 12.2053C1.90453 12.5754 1.9903 12.9772 2.11669 13.4105ZM8.1021 13.4105H13.925C13.9972 12.8508 14.0424 12.3949 14.0604 12.0428C14.0785 11.6907 14.0875 11.3251 14.0875 10.9459C14.0875 10.5848 14.0785 10.2372 14.0604 9.90321C14.0424 9.56918 13.9972 9.1223 13.925 8.56258H8.1021C8.02988 9.1223 7.98474 9.56918 7.96669 9.90321C7.94863 10.2372 7.9396 10.5848 7.9396 10.9459C7.9396 11.3251 7.94863 11.6907 7.96669 12.0428C7.98474 12.3949 8.02988 12.8508 8.1021 13.4105ZM15.55 13.4105H19.8834C20.0097 12.9772 20.0955 12.5754 20.1406 12.2053C20.1858 11.8351 20.2084 11.4154 20.2084 10.9459C20.2084 10.4765 20.1858 10.0702 20.1406 9.72716C20.0955 9.38411 20.0097 8.99591 19.8834 8.56258H15.5771C15.6313 9.19452 15.6674 9.67751 15.6854 10.0115C15.7035 10.3456 15.7125 10.657 15.7125 10.9459C15.7125 11.3431 15.699 11.7178 15.6719 12.0699C15.6448 12.422 15.6042 12.8688 15.55 13.4105ZM15.2792 6.93758H19.3417C18.7459 5.69175 17.9288 4.65355 16.8906 3.823C15.8524 2.99244 14.6563 2.40564 13.3021 2.06258C13.7535 2.73064 14.1372 3.45286 14.4531 4.22925C14.7691 5.00564 15.0445 5.90841 15.2792 6.93758ZM8.40002 6.93758H13.6542C13.4556 5.98064 13.1215 5.05529 12.6521 4.16154C12.1827 3.26779 11.632 2.47786 11 1.79175C10.4222 2.27925 9.93474 2.92022 9.53752 3.71466C9.1403 4.50911 8.76113 5.58341 8.40002 6.93758ZM2.65835 6.93758H6.74794C6.94655 5.96258 7.19933 5.0914 7.50627 4.32404C7.81321 3.55668 8.20141 2.81189 8.67085 2.08966C7.31669 2.43272 6.13405 3.0105 5.12294 3.823C4.11183 4.6355 3.2903 5.67369 2.65835 6.93758Z" fill="#FA3838"/>
</svg>
