<svg width="25" height="19" viewBox="0 0 25 19" fill="none" xmlns="http://www.w3.org/2000/svg">
<path d="M14.75 5.9C14.75 5.7875 14.7875 5.67969 14.8625 5.57656C14.9375 5.47344 15.0219 5.40312 15.1156 5.36562C15.6781 5.15937 16.2547 5 16.8453 4.8875C17.4359 4.775 18.05 4.71875 18.6875 4.71875C19.1 4.71875 19.5031 4.74219 19.8969 4.78906C20.2906 4.83594 20.675 4.90625 21.05 5C21.1625 5.0375 21.2656 5.10781 21.3594 5.21094C21.4531 5.31406 21.5 5.43125 21.5 5.5625C21.5 5.76875 21.4297 5.92813 21.2891 6.04063C21.1484 6.15313 20.975 6.18125 20.7688 6.125C20.45 6.03125 20.1172 5.96094 19.7703 5.91406C19.4234 5.86719 19.0625 5.84375 18.6875 5.84375C18.1437 5.84375 17.6187 5.89531 17.1125 5.99844C16.6063 6.10156 16.1094 6.25625 15.6219 6.4625C15.3594 6.55625 15.1484 6.55156 14.9891 6.44844C14.8297 6.34531 14.75 6.1625 14.75 5.9ZM14.75 12.0875C14.75 11.975 14.7875 11.8625 14.8625 11.75C14.9375 11.6375 15.0219 11.5625 15.1156 11.525C15.6781 11.3188 16.2547 11.1641 16.8453 11.0609C17.4359 10.9578 18.05 10.9062 18.6875 10.9062C19.1 10.9062 19.5031 10.9297 19.8969 10.9766C20.2906 11.0234 20.675 11.0938 21.05 11.1875C21.1625 11.225 21.2656 11.2953 21.3594 11.3984C21.4531 11.5016 21.5 11.6187 21.5 11.75C21.5 11.9563 21.4297 12.1156 21.2891 12.2281C21.1484 12.3406 20.975 12.3687 20.7688 12.3125C20.45 12.2188 20.1172 12.1484 19.7703 12.1016C19.4234 12.0547 19.0625 12.0312 18.6875 12.0312C18.1437 12.0312 17.6187 12.0781 17.1125 12.1719C16.6063 12.2656 16.1094 12.4156 15.6219 12.6219C15.3594 12.7156 15.1484 12.7156 14.9891 12.6219C14.8297 12.5281 14.75 12.35 14.75 12.0875ZM14.75 8.99375C14.75 8.88125 14.7875 8.77344 14.8625 8.67031C14.9375 8.56719 15.0219 8.49687 15.1156 8.45937C15.6781 8.25312 16.2547 8.09375 16.8453 7.98125C17.4359 7.86875 18.05 7.8125 18.6875 7.8125C19.1 7.8125 19.5031 7.83594 19.8969 7.88281C20.2906 7.92969 20.675 8 21.05 8.09375C21.1625 8.13125 21.2656 8.20156 21.3594 8.30469C21.4531 8.40781 21.5 8.525 21.5 8.65625C21.5 8.8625 21.4297 9.02188 21.2891 9.13438C21.1484 9.24687 20.975 9.275 20.7688 9.21875C20.45 9.125 20.1172 9.05469 19.7703 9.00781C19.4234 8.96094 19.0625 8.9375 18.6875 8.9375C18.1437 8.9375 17.6187 8.98906 17.1125 9.09219C16.6063 9.19531 16.1094 9.35 15.6219 9.55625C15.3594 9.65 15.1484 9.64531 14.9891 9.54219C14.8297 9.43906 14.75 9.25625 14.75 8.99375ZM5.975 14.5625C6.9875 14.5625 7.96719 14.6797 8.91406 14.9141C9.86094 15.1484 10.7937 15.5 11.7125 15.9688V3.95937C10.8688 3.39687 9.95469 2.96094 8.97031 2.65156C7.98594 2.34219 6.9875 2.1875 5.975 2.1875C5.2625 2.1875 4.56406 2.27656 3.87969 2.45469C3.19531 2.63281 2.50625 2.85312 1.8125 3.11562V15.3219C2.39375 15.0594 3.05469 14.8672 3.79531 14.7453C4.53594 14.6234 5.2625 14.5625 5.975 14.5625ZM13.4 15.9688C14.3375 15.5 15.2563 15.1484 16.1562 14.9141C17.0562 14.6797 18.0125 14.5625 19.025 14.5625C19.7375 14.5625 20.4734 14.6187 21.2328 14.7312C21.9922 14.8438 22.6437 14.9937 23.1875 15.1812V3.11562C22.55 2.79687 21.875 2.5625 21.1625 2.4125C20.45 2.2625 19.7375 2.1875 19.025 2.1875C18.0125 2.1875 17.0328 2.34219 16.0859 2.65156C15.1391 2.96094 14.2438 3.39687 13.4 3.95937V15.9688ZM12.5563 18.1906C12.4062 18.1906 12.2703 18.1766 12.1484 18.1484C12.0266 18.1203 11.9187 18.0687 11.825 17.9937C10.9437 17.45 10.0062 17.0281 9.0125 16.7281C8.01875 16.4281 7.00625 16.2781 5.975 16.2781C5.28125 16.2781 4.60625 16.3625 3.95 16.5312C3.29375 16.7 2.6375 16.9062 1.98125 17.15C1.55 17.3562 1.13281 17.3281 0.729688 17.0656C0.326563 16.8031 0.125 16.4281 0.125 15.9406V2.91875C0.125 2.6375 0.190625 2.37969 0.321875 2.14531C0.453125 1.91094 0.65 1.72812 0.9125 1.59687C1.7 1.22187 2.52031 0.945313 3.37344 0.767188C4.22656 0.589063 5.09375 0.5 5.975 0.5C7.15625 0.5 8.30469 0.659375 9.42031 0.978125C10.5359 1.29688 11.5813 1.78437 12.5563 2.44062C13.5125 1.78437 14.5391 1.29688 15.6359 0.978125C16.7328 0.659375 17.8625 0.5 19.025 0.5C19.9062 0.5 20.7688 0.589063 21.6125 0.767188C22.4563 0.945313 23.2719 1.22187 24.0594 1.59687C24.3219 1.72812 24.5234 1.91094 24.6641 2.14531C24.8047 2.37969 24.875 2.6375 24.875 2.91875V15.9406C24.875 16.4656 24.6641 16.8641 24.2422 17.1359C23.8203 17.4078 23.4031 17.4125 22.9906 17.15C22.3531 16.8875 21.7063 16.6766 21.05 16.5172C20.3938 16.3578 19.7188 16.2781 19.025 16.2781C18.0125 16.2781 17.0187 16.4281 16.0437 16.7281C15.0687 17.0281 14.15 17.45 13.2875 17.9937C13.1937 18.0687 13.0859 18.1203 12.9641 18.1484C12.8422 18.1766 12.7063 18.1906 12.5563 18.1906Z" fill="#FA3838"/>
</svg>
